<svg xmlns="http://www.w3.org/2000/svg" xmlns:xlink="http://www.w3.org/1999/xlink" width="357" height="231" viewBox="0 0 357 231">
  <defs>
    <filter id="Rectangle_495" x="0" y="0" width="357" height="231" filterUnits="userSpaceOnUse">
      <feOffset dy="7" input="SourceAlpha"/>
      <feGaussianBlur stdDeviation="3.5" result="blur"/>
      <feFlood flood-color="#4a4747" flood-opacity="0.553"/>
      <feComposite operator="in" in2="blur"/>
      <feComposite in="SourceGraphic"/>
    </filter>
    <filter id="Rectangle_495-2" x="0" y="0" width="357" height="231" filterUnits="userSpaceOnUse">
      <feOffset dy="3" input="SourceAlpha"/>
      <feGaussianBlur stdDeviation="3" result="blur-2"/>
      <feFlood flood-color="#fff" result="color"/>
      <feComposite operator="out" in="SourceGraphic" in2="blur-2"/>
      <feComposite operator="in" in="color"/>
      <feComposite operator="in" in2="SourceGraphic"/>
    </filter>
  </defs>
  <g id="CORPORATIVO" transform="translate(-579.5 -820.5)">
    <g data-type="innerShadowGroup">
      <g transform="matrix(1, 0, 0, 1, 579.5, 820.5)" filter="url(#Rectangle_495)">
        <rect id="Rectangle_495-3" data-name="Rectangle 495" width="336" height="210" rx="40" transform="translate(10.5 3.5)" fill="#053bb5"/>
      </g>
      <g transform="matrix(1, 0, 0, 1, 579.5, 820.5)" filter="url(#Rectangle_495-2)">
        <rect id="Rectangle_495-4" data-name="Rectangle 495" width="336" height="210" rx="40" transform="translate(10.5 3.5)" fill="#fff"/>
      </g>
    </g>
    <text id="Privacy" transform="translate(648 967)" fill="#e4e4e4" font-size="30" font-family="Arial" font-weight="700"><tspan x="0" y="0">CORPORATIVO</tspan></text>
    <g id="Person" transform="translate(742 889)">
      <ellipse id="Ellipse_3" data-name="Ellipse 3" cx="8" cy="8.5" rx="8" ry="8.5" transform="translate(8.362)" fill="#e4e4e4"/>
      <path id="Path_6" data-name="Path 6" d="M16.493,10C7.422,10,0,13.711,0,18.246V22.37H32.986V18.246C32.986,13.711,25.564,10,16.493,10Z" transform="translate(0 8.46)" fill="#e4e4e4"/>
    </g>
  </g>
</svg>
