<svg xmlns="http://www.w3.org/2000/svg" xmlns:xlink="http://www.w3.org/1999/xlink" width="357" height="231" viewBox="0 0 357 231">
  <defs>
    <filter id="Rectangle_492" x="0" y="0" width="357" height="231" filterUnits="userSpaceOnUse">
      <feOffset dy="7" input="SourceAlpha"/>
      <feGaussianBlur stdDeviation="3.5" result="blur"/>
      <feFlood flood-color="#4a4747" flood-opacity="0.553"/>
      <feComposite operator="in" in2="blur"/>
      <feComposite in="SourceGraphic"/>
    </filter>
    <filter id="Rectangle_492-2" x="0" y="0" width="357" height="231" filterUnits="userSpaceOnUse">
      <feOffset dy="3" input="SourceAlpha"/>
      <feGaussianBlur stdDeviation="3" result="blur-2"/>
      <feFlood flood-color="#fff" result="color"/>
      <feComposite operator="out" in="SourceGraphic" in2="blur-2"/>
      <feComposite operator="in" in="color"/>
      <feComposite operator="in" in2="SourceGraphic"/>
    </filter>
  </defs>
  <g id="Gastro" transform="translate(-143.5 -541.5)">
    <g data-type="innerShadowGroup">
      <g transform="matrix(1, 0, 0, 1, 143.5, 541.5)" filter="url(#Rectangle_492)">
        <rect id="Rectangle_492-3" data-name="Rectangle 492" width="336" height="210" rx="40" transform="translate(10.5 3.5)" fill="#053bb5"/>
      </g>
      <g transform="matrix(1, 0, 0, 1, 143.5, 541.5)" filter="url(#Rectangle_492-2)">
        <rect id="Rectangle_492-4" data-name="Rectangle 492" width="336" height="210" rx="40" transform="translate(10.5 3.5)" fill="#fff"/>
      </g>
    </g>
    <text id="Notifications" transform="translate(208 674)" fill="#e4e4e4" font-size="30" font-family="Arial" font-weight="700"><tspan x="0" y="0">GASTRONOMÍA</tspan></text>
    <path id="Path_1" data-name="Path 1" d="M30.858,28.862H20.55a4.123,4.123,0,1,1-8.246,0H2A1.98,1.98,0,0,1,.14,27.419a2.2,2.2,0,0,1,.618-2.268,8.3,8.3,0,0,0,3.3-6.6V12.37a12.37,12.37,0,0,1,24.739,0v6.185a8.3,8.3,0,0,0,3.3,6.6,1.952,1.952,0,0,1,.618,2.268A1.98,1.98,0,0,1,30.858,28.862Z" transform="translate(305.938 594)" fill="#e4e4e4"/>
  </g>
</svg>
