<?xml version="1.0" encoding="utf-8"?>
<!-- Generator: Adobe Illustrator 27.9.5, SVG Export Plug-In . SVG Version: 9.03 Build 54986)  -->
<svg version="1.1" id="Capa_1" xmlns="http://www.w3.org/2000/svg" xmlns:xlink="http://www.w3.org/1999/xlink" x="0px" y="0px"
	 viewBox="0 0 1299.3 464.4" style="enable-background:new 0 0 1299.3 464.4;" xml:space="preserve">
<style type="text/css">
	.st0{fill:#B7B6B6;}
</style>
<g>
	<path class="st0" d="M1175.1,32.6l-0.2,87.8h97c4.4,0,8,3.6,8,8l0.1,28.8c0,4.4-3.6,8-8,8h-96.2c-0.1,79.1,0.2,137.8-0.5,164.5
		c-0.2,6.1-0.3,18.9,7.8,29c5.6,7.1,14.5,11.5,27.5,14.5c16,3.7,34.2,4.5,61.1-5.6c3.7-1.4,7.8,0.1,9.8,3.5
		c5.5,9.8,11.1,19.6,16.8,29.7c2.2,4,0.7,9-3.3,11.1c-13.4,7-27.4,11-42.1,12.8c-34.2,3.9-67,0.4-95.4-21.2
		c-11.5-8.7-20-19.1-25.5-31.1c-6.4-14.2-6.7-27-6.8-32.6c-0.3-27.3-0.8-145.1-0.2-307.2c0-4.4,3.6-8,8-8h34.1
		C1171.5,24.6,1175.1,28.2,1175.1,32.6L1175.1,32.6z"/>
	<path class="st0" d="M1040.5,120.4h28.8c5.7,0,10.4,4.7,10.4,10.4v283.9c0,5.7-4.7,10.4-10.4,10.4h-28.8c-5.7,0-10.4-4.7-10.4-10.4
		V130.8C1030.1,125,1034.8,120.4,1040.5,120.4z"/>
	<path class="st0" d="M1040.6,24.7h28.8c5.8,0,10.5,4.7,10.5,10.5v29c0,5.8-4.7,10.5-10.5,10.5h-28.8c-5.8,0-10.5-4.7-10.5-10.5v-29
		C1030.1,29.4,1034.8,24.7,1040.6,24.7z"/>
	<path class="st0" d="M942.3,126.9l-74.1,221.3c-24.2-71-48.3-141.9-72.5-212.8c-3.1-9-11.5-15-21-15H754c-9.5,0-18,6.1-21,15.1
		l-71.3,212.7c-25.1-73.7-50.2-147.5-75.4-221.2c-1.3-4-5.1-6.7-9.3-6.7h-30.2c-6.7,0-11.4,6.5-9.3,12.9
		c47.3,144.7,82.2,249.1,88.7,267.3c1.3,3.6,4.6,12.4,12.9,18.5c6.5,4.8,14.9,7.1,24.5,6.7c5.2-0.2,9.9-1.4,14.2-3.5
		c12.9-6.4,18.4-20.6,20.7-27c7.6-20.8,33-95.6,65.7-198.2c36.1,109.4,63.1,188.9,68.6,204.3c1.2,3.3,4.1,11.1,11.5,17
		c4.9,3.9,11.1,6.4,18.4,7.2c15.6,1.8,27.9-3.9,36.1-17.3c5.4-8.8,7.4-16.7,7.7-18.2c3.3-14.7,36.5-114.8,84.5-257
		c2.1-6.2-2.5-12.7-9.1-12.7h-30.5C947.3,120.4,943.6,123,942.3,126.9L942.3,126.9z"/>
</g>
<path class="st0" d="M218.6,38.2c10.9,0,19.8,8.9,19.8,19.8v76.7c0,10.9-8.9,19.8-19.8,19.8s-19.8-8.9-19.8-19.8V58
	C198.8,47,207.6,38.2,218.6,38.2 M218.6,2.4c-30.6,0-55.5,24.9-55.5,55.5v76.7c0,30.6,24.9,55.5,55.5,55.5s55.5-24.9,55.5-55.5V58
	C274.1,27.3,249.2,2.4,218.6,2.4L218.6,2.4L218.6,2.4z"/>
<path class="st0" d="M218.6,462C99.8,462,3.5,368.6,0.1,249.9c-2-69.3,28.2-134.2,82.2-177.3l10.2-8.1c4.9-3.9,12.1-3.1,16.1,1.8
	l16.2,20.3c3.9,4.9,3.1,12.1-1.8,16.1l-10.2,8.1C70.2,144.8,46.7,196.3,49,251c3.8,88.7,76.7,160,165.4,162.1
	c95.4,2.2,173.8-74.7,173.8-169.6c0-51.9-23.3-100.2-63.9-132.7l-10.2-8.1c-4.9-3.9-5.7-11.1-1.8-16l16.2-20.3
	c3.9-4.9,11.1-5.7,16-1.8l10.2,8.1c52.3,41.8,82.3,104,82.3,170.9C437.1,364,339.1,462,218.6,462L218.6,462z"/>
</svg>
