<?xml version="1.0" encoding="UTF-8"?><svg id="Capa_2" xmlns="http://www.w3.org/2000/svg" viewBox="0 0 726.18 78.36"><defs><style>.cls-1{fill:#1e71b8;}.cls-1,.cls-2,.cls-3{stroke-width:0px;}.cls-2{fill:#1f72b8;}.cls-3{fill:#b6b7b8;}</style></defs><g id="Capa_1-2"><path class="cls-3" d="m414.88,31.23c-.65,1.09-.91,2.27-1.28,3.39-3.31,9.78-6.59,19.57-9.89,29.35-1.08,3.21-2.22,6.4-3.27,9.62-.34,1.04-.87,1.45-1.99,1.42-3.04-.07-6.08-.08-9.11,0-1.2.03-1.77-.36-2.15-1.52-4.46-13.51-8.98-27.01-13.49-40.51-.2-.59-.3-1.24-.91-1.83-.4,2.13-.8,4.15-1.15,6.18-.99,5.72-1.95,11.45-2.93,17.17-1.02,5.92-2.02,11.84-3.11,17.74-.55,2.97-.07,2.75-3.28,2.75-3.08,0-6.16,0-9.24,0-1.3,0-1.55-.32-1.33-1.6,1.97-11.32,3.96-22.64,5.91-33.97,1.96-11.36,3.89-22.73,5.85-34.1.33-1.94.38-1.96,2.39-1.96,3.44,0,6.88.03,10.32-.02.97-.01,1.41.35,1.71,1.26,4.94,14.91,9.92,29.81,14.88,44.71.24.72.44,1.45.67,2.17.07.22.16.51.45.45.15-.03.3-.25.36-.42.3-.82.57-1.66.85-2.49,3.86-11.49,7.71-22.98,11.57-34.46,1.11-3.29,2.26-6.56,3.33-9.85.33-1,.86-1.37,1.92-1.36,3.56.06,7.12.05,10.67,0,.98-.01,1.45.33,1.61,1.31.74,4.51,1.54,9.01,2.3,13.52,1.16,6.94,2.3,13.89,3.47,20.83,1.15,6.86,2.34,13.72,3.5,20.58.78,4.63,1.54,9.26,2.32,13.88.2,1.21,0,1.51-1.27,1.52-3.56.01-7.12,0-10.68.01-.86,0-1.32-.27-1.47-1.18-.76-4.55-1.57-9.09-2.35-13.64-1-5.84-1.99-11.68-2.99-17.52-.6-3.53-1.21-7.05-1.81-10.58-.05-.27,0-.57-.38-.86Z"/><path class="cls-1" d="m135.53,52.44c.6-.64.69-1.28.89-1.86,4.98-14.81,9.95-29.62,14.93-44.43,1.1-3.26.67-2.73,3.76-2.76,3-.02,6,.04,9-.03,1.15-.03,1.66.38,1.84,1.5,2.48,14.95,4.98,29.89,7.49,44.83,1.29,7.67,2.61,15.33,3.91,22.99.06.35.09.71.15,1.07.16.84-.22,1.16-1.04,1.15-3.64-.01-7.28-.04-10.92.01-1.13.01-1.31-.69-1.45-1.51-.81-4.76-1.61-9.51-2.42-14.27-1.41-8.25-2.82-16.51-4.23-24.76-.19-1.14-.39-2.27-.59-3.47-.58.22-.58.71-.71,1.08-4.64,13.7-9.26,27.41-13.89,41.11-.6,1.79-.6,1.76-2.42,1.81-2.8.08-5.59.06-8.39,0-2-.04-2,0-2.62-1.85-4.49-13.49-8.98-26.98-13.48-40.46-.18-.55-.29-1.14-.9-1.82-.44,2.57-.85,4.89-1.25,7.22-2.07,11.86-4.15,23.72-6.19,35.59-.17,1-.62,1.33-1.59,1.33-3.52,0-7.03.12-10.55-.01-1.34-.05-1.52-.23-1.28-1.6,1.22-7.11,2.46-14.22,3.69-21.33,1.87-10.8,3.73-21.61,5.6-32.41.84-4.87,1.71-9.74,2.51-14.61.19-1.16.69-1.61,1.9-1.58,3.4.07,6.8.08,10.2,0,1.26-.03,1.83.4,2.22,1.59,4.6,13.96,9.24,27.91,13.88,41.86.61,1.84,1.26,3.66,1.93,5.63Z"/><path class="cls-3" d="m488.45,39.18c0-11.22,0-22.44,0-33.66,0-2.1.06-2.16,2.14-2.16,6.52,0,13.03-.11,19.55.06,5.02.12,10.02.77,14.81,2.41,5.92,2.03,10.41,5.92,13.91,11.03,3.8,5.55,5.86,11.7,6.48,18.39.78,8.44-.19,16.58-4.34,24.08-4.18,7.54-10.29,12.71-18.9,14.56-2.22.48-4.49.7-6.75.84-8.54.53-17.09.16-25.64.28-.85.01-1.15-.37-1.21-1.09-.03-.4-.03-.8-.03-1.2,0-11.18,0-22.36,0-33.54Zm13.92-.24c0,6.82,0,13.65,0,20.47,0,1.87.26,2.16,2.13,2.15,4.03,0,8.04-.17,12.05-.65,6.31-.75,10.47-4.28,12.86-9.93,2.85-6.74,2.81-13.73.65-20.58-1.96-6.23-6.15-10.47-12.64-12.29-4.33-1.21-8.72-1.36-13.15-1.35-1.73,0-1.89.16-1.89,1.93,0,6.75,0,13.49,0,20.24Z"/><path class="cls-1" d="m0,39.19c0-11.02,0-22.05,0-33.07,0-.32,0-.64,0-.96.05-1.63.19-1.78,1.82-1.76,6.67.08,13.35-.25,20.02.21,3.47.24,6.96.58,10.16,2.07,6.02,2.8,9.3,7.73,10.41,14.14.58,3.37.51,6.77-.31,10.11-1.38,5.62-4.88,9.47-10.06,11.91-2.74,1.29-2.74,1.3-1.34,3.94,4.85,9.12,9.7,18.23,14.55,27.35.13.25.25.5.38.75.35.66.1.98-.6,1.02-.32.02-.64.01-.96.01-3.76,0-7.52-.06-11.27.03-1.34.04-2.01-.5-2.59-1.61-4.71-8.97-9.46-17.91-14.2-26.86-.17-.32-.33-.64-.53-.94-.25-.39-.43-.94-1.06-.76-.54.16-.49.66-.5,1.1-.02.6-.04,1.2-.04,1.8,0,8.47,0,16.93,0,25.4,0,1.77-.07,1.84-1.81,1.84-3.4,0-6.79,0-10.19,0-1.75,0-1.88-.13-1.88-1.93,0-11.26,0-22.52,0-33.79Zm13.89-15.33s0,0,0,0c0,1.99,0,3.99,0,5.98,0,.61.06,1.31.88,1.31,3.7.02,7.43.34,11-1.05.86-.34,1.65-.81,2.23-1.55,2.43-3.13,2-10-3.98-11.3-2.87-.63-5.79-.44-8.7-.52-1.04-.03-1.46.39-1.45,1.39.02,1.91,0,3.83,0,5.74Z"/><path class="cls-3" d="m604.96,60.37c-4.32,0-8.64.02-12.95-.02-1.01,0-1.56.27-1.95,1.29-1.56,4.1-3.24,8.15-4.83,12.24-.32.81-.82,1.12-1.62,1.12-3.96,0-7.92,0-11.87-.01-1.13,0-1.33-.33-.92-1.4,5.03-13.01,10.07-26.02,15.1-39.03,3.81-9.85,7.63-19.7,11.4-29.56.44-1.16.97-1.71,2.32-1.67,3.64.11,7.28.07,10.91.02,1.07-.01,1.63.32,2.04,1.37,4.81,12.58,9.67,25.15,14.51,37.72,3.93,10.19,7.85,20.38,11.77,30.58.11.3.19.61.31.91.29.73.01,1.08-.73,1.08-4.12,0-8.24,0-12.35,0-.83,0-1.17-.53-1.43-1.21-1.5-3.95-3.04-7.88-4.5-11.85-.42-1.14-.98-1.61-2.25-1.59-4.32.08-8.64.03-12.95.03Zm-.11-13.6c2.72,0,5.43,0,8.15,0,.81,0,1.36-.11.94-1.17-2.78-7.04-5.52-14.09-8.29-21.13-.13-.33-.11-.91-.63-.87-.38.03-.45.52-.57.84-2.76,7.04-5.51,14.09-8.29,21.12-.41,1.03-.05,1.23.91,1.21,2.6-.04,5.19-.01,7.79-.01Z"/><path class="cls-3" d="m441.66,39.31c0-10.94,0-21.88,0-32.82,0-.32,0-.64,0-.96.03-2.07.12-2.17,2.15-2.17,11.79,0,23.59,0,35.38,0q1.81,0,1.82,1.76c0,3.15,0,6.31,0,9.46q0,2.19-2.26,2.2c-7.08,0-14.15,0-21.23,0-1.9,0-1.96.05-1.96,1.95,0,2.99,0,5.99,0,8.98,0,1.63.12,1.75,1.8,1.75,7.28,0,14.55,0,21.83,0,1.64,0,1.7,0,1.84,1.64.3,3.46.18,6.93.07,10.4-.04,1.16-.58,1.43-1.66,1.42-7.24-.04-14.47-.02-21.71-.02q-2.18,0-2.18,2.23c0,4.83,0,9.66,0,14.5,0,1.8.15,1.95,2,1.95,7.24,0,14.47,0,21.71,0,1.62,0,1.6,0,1.75,1.58.35,3.58.15,7.17,0,10.75-.03.77-.39,1.08-1.11,1.08-.24,0-.48,0-.72,0-11.91,0-23.83,0-35.74,0-1.61,0-1.78-.16-1.78-1.78,0-11.3,0-22.6,0-33.9h-.02Z"/><path class="cls-1" d="m302.02,39.05c0-11.18,0-22.36,0-33.54,0-2.1.03-2.12,2.16-2.12,11.75,0,23.5,0,35.25,0,1.74,0,1.82.08,1.83,1.82,0,3.23,0,6.47,0,9.7,0,1.72-.09,1.82-1.84,1.82-5.12.01-10.23,0-15.35,0-2.32,0-4.64.03-6.95-.02-.99-.02-1.39.39-1.38,1.33,0,3.35.02,6.71,0,10.06,0,1.15.59,1.38,1.6,1.37,7.15-.03,14.31-.01,21.46-.01.48,0,.96.04,1.44.03.71-.01,1.03.35,1.03,1.02,0,3.75,0,7.51,0,11.26,0,.7-.37,1.01-1.03,1.05-.36.02-.72.02-1.08.02-7.11,0-14.23,0-21.34,0-1.99,0-2.07.1-2.07,2.1,0,4.75,0,9.5,0,14.25,0,2.33.04,2.37,2.44,2.37,7.11,0,14.23,0,21.34,0,1.66,0,1.74.08,1.75,1.76,0,3.31-.03,6.63.02,9.94.01,1.14-.36,1.65-1.58,1.63-2.6-.04-5.19.04-7.79.04-8.91-.01-17.82-.07-26.74-.05-3.19,0-3.16.42-3.15-3.17,0-10.9,0-21.8,0-32.7Z"/><path class="cls-1" d="m52.03,39.19c0-11.06,0-22.12,0-33.18,0-.48.04-.96.02-1.44-.03-.81.36-1.18,1.15-1.17.16,0,.32,0,.48,0,11.95,0,23.91,0,35.86,0,1.54,0,1.63.1,1.63,1.63,0,3.31,0,6.63,0,9.94,0,1.62-.13,1.77-1.77,1.77-7.28,0-14.55,0-21.83,0-1.73,0-1.83.1-1.83,1.84,0,2.99,0,5.99,0,8.98,0,1.82.1,1.92,1.87,1.92,6.96,0,13.91,0,20.87,0,3.25,0,2.66.04,2.68,2.74.03,2.91,0,5.83,0,8.74,0,1.88-.02,1.9-1.98,1.9-6.88,0-13.75,0-20.63,0q-2.83,0-2.83,2.8c0,4.59,0,9.18,0,13.78,0,2.04.09,2.15,2.17,2.15,7.16,0,14.31,0,21.47,0,1.76,0,1.79.03,1.79,1.83,0,3.35-.03,6.71.02,10.06.02,1.03-.33,1.48-1.37,1.44-.56-.02-1.12.05-1.68.05-11.43-.02-22.86-.04-34.3-.06-1.75,0-1.82-.07-1.82-1.82,0-11.3,0-22.6,0-33.9Z"/><path class="cls-2" d="m218.76,1.58c21.2.08,38.44,17.11,38.4,37.85-.04,19.9-16.57,38.52-38.87,38.26-22.9-.27-38.24-19.83-37.96-38.89.29-20.3,17.65-37.3,38.43-37.22Zm30.75,38.08c0-16.84-13.76-30.71-30.42-30.81-16.55-.1-31.16,12.85-31.17,30.77-.01,17.68,14.19,30.66,30.42,30.77,17.35.11,31.17-13.61,31.18-30.73Z"/><path class="cls-1" d="m284.78,45.77c0,9.02,0,18.05,0,27.07,0,2.07-.01,2.07-2.06,2.07-3.28,0-6.55,0-9.83,0-2.09,0-2.1,0-2.1-2.16,0-11.26,0-22.52,0-33.78,0-6.83,0-13.65,0-20.48,0-1.65-.11-1.75-1.78-1.75-3.08,0-6.16.01-9.23,0-1.55,0-1.7-.18-1.7-1.73,0-3.31,0-6.63,0-9.94,0-1.56.11-1.66,1.61-1.66,12.15,0,24.3,0,36.45,0,1.48,0,1.53.11,1.6,1.54.18,3.35.02,6.7,0,10.05-.02,1.59-.08,1.71-1.69,1.73-3.2.04-6.4.01-9.59.02-1.59,0-1.68.09-1.68,1.71,0,9.1,0,18.21,0,27.31h0Z"/><path class="cls-3" d="m565.96,39.18c0,11.38,0,22.76,0,34.14,0,1.62-.05,1.67-1.7,1.67-3.48,0-6.96,0-10.43,0-1.41,0-1.58-.17-1.58-1.6,0-22.8,0-45.6,0-68.4,0-1.56.07-1.63,1.62-1.63,3.56,0,7.12.04,10.67-.02,1.12-.02,1.44.38,1.43,1.46-.03,11.46-.02,22.92-.02,34.38Z"/><path class="cls-3" d="m662.59,22.51c0-3.3,2.65-5.96,5.92-5.94,3.25.02,5.87,2.71,5.85,6.01-.02,3.25-2.73,5.91-6,5.89-3.17-.02-5.78-2.71-5.77-5.97Z"/><path class="cls-3" d="m714.68,22.55c0,3.25-2.65,5.95-5.8,5.93-3.28-.02-5.96-2.67-5.97-5.92,0-3.3,2.64-5.99,5.89-5.98,3.27,0,5.89,2.66,5.89,5.97Z"/><path class="cls-3" d="m697.37,11.75c-3.3,0-5.96-2.64-5.95-5.89.01-3.2,2.67-5.83,5.88-5.85,3.18-.02,5.94,2.14,5.97,5.84.03,3.93-3.14,6.05-5.9,5.9Z"/><path class="cls-3" d="m697.4,66.6c2.93-.06,5.92,2.08,5.86,5.92-.05,3.55-2.71,5.79-5.88,5.83-3.31.04-6.01-2.72-5.97-6.02.04-3.19,2.71-5.74,5.99-5.73Z"/><path class="cls-3" d="m662.59,55.86c-.01-3.26,2.57-5.95,5.74-5.99,3.32-.04,6.07,2.64,6.02,5.96-.05,3.3-2.3,5.85-5.93,5.89-3.31.04-5.84-2.56-5.83-5.86Z"/><path class="cls-3" d="m714.68,55.86c.02,3.29-2.5,5.9-5.83,5.86-3.65-.05-5.88-2.6-5.93-5.89-.05-3.32,2.7-6,6.02-5.96,3.18.04,5.75,2.73,5.74,5.99Z"/><path class="cls-3" d="m656.98,66.6c3.41,0,5.88,2.45,5.88,5.86,0,3.3-2.61,5.92-5.89,5.9-3.21-.02-5.86-2.65-5.88-5.84-.02-3.27,2.61-5.92,5.89-5.92Z"/><path class="cls-3" d="m674.09,39.17c0-3.36,2.46-5.86,5.78-5.87,3.33-.02,5.98,2.58,5.99,5.86,0,3.26-2.68,5.9-5.98,5.89-3.28,0-5.79-2.56-5.79-5.88Z"/><path class="cls-3" d="m714.41,39.09c.01-3.3,2.54-5.8,5.87-5.8,3.31,0,5.92,2.62,5.9,5.94-.01,3.21-2.67,5.82-5.91,5.82-3.3,0-5.87-2.62-5.86-5.96Z"/><path class="cls-3" d="m662.86,5.9c0,3.39-2.5,5.85-5.92,5.85-3.24,0-5.85-2.63-5.85-5.87,0-3.28,2.66-5.88,5.99-5.87,3.27.01,5.79,2.58,5.78,5.9Z"/><path class="cls-1" d="m231.52,39.59c.04,7.05-5.69,12.84-12.72,12.86-7.09.02-12.85-5.66-12.88-12.69-.03-7.15,5.65-12.89,12.78-12.91,7.06-.02,12.79,5.68,12.83,12.75Z"/></g></svg>