<?xml version="1.0" encoding="UTF-8"?><svg id="Capa_2" xmlns="http://www.w3.org/2000/svg" viewBox="0 0 1080 198"><defs><style>.cls-1{fill:#1e71b8;}.cls-1,.cls-2,.cls-3{stroke-width:0px;}.cls-2{fill:#b6b7b8;}.cls-3{fill:#fff;}</style></defs><g id="Capa_1-2"><rect class="cls-3" width="1080" height="198"/><path id="Trazado_23" class="cls-2" d="m581.35,92.65c-.44.86-.78,1.77-1.02,2.71-2.64,7.81-5.28,15.62-7.9,23.43-.86,2.56-1.77,5.11-2.61,7.68-.14.75-.84,1.25-1.59,1.13-2.43-.06-4.85-.06-7.27,0-.81.13-1.57-.41-1.72-1.21-3.56-10.79-7.15-21.57-10.76-32.34-.11-.54-.36-1.05-.73-1.46-.32,1.7-.64,3.31-.92,4.93-.79,4.57-1.56,9.14-2.34,13.71-.81,4.73-1.61,9.45-2.48,14.16-.44,2.37-.06,2.2-2.62,2.2h-7.37c-1.04,0-1.24-.26-1.06-1.28,1.57-9.04,3.15-18.08,4.72-27.12,1.56-9.07,3.12-18.14,4.67-27.22.26-1.55.3-1.57,1.91-1.57,2.75,0,5.49.02,8.24-.02.65-.08,1.25.36,1.36,1.01,3.94,11.9,7.9,23.8,11.88,35.69.19.58.35,1.16.54,1.73.06.18.13.41.36.36.12-.02.24-.2.29-.33.24-.65.45-1.33.68-1.99,3.08-9.17,6.16-18.34,9.24-27.51.89-2.63,1.8-5.24,2.66-7.86.14-.71.81-1.19,1.53-1.09,2.84.05,5.68.04,8.52,0,.78,0,1.16.26,1.29,1.05.59,3.6,1.23,7.19,1.84,10.79.93,5.54,1.84,11.09,2.77,16.63.92,5.48,1.87,10.95,2.79,16.43.62,3.7,1.23,7.39,1.85,11.08.16.97,0,1.21-1.01,1.21-2.84,0-5.68,0-8.53,0-.69,0-1.05-.22-1.17-.94-.61-3.63-1.25-7.26-1.88-10.89-.8-4.66-1.6-9.33-2.39-13.99-.48-2.82-.96-5.63-1.45-8.45-.04-.22,0-.45-.3-.69h0Z"/><path id="Trazado_24" class="cls-1" d="m358.33,109.59c.35-.43.6-.94.71-1.49,3.98-11.82,7.95-23.65,11.92-35.47.88-2.6.54-2.18,3-2.2,2.4-.02,4.79.03,7.18-.02.66-.14,1.31.29,1.44.95.02.08.03.17.03.25,1.98,11.93,3.97,23.86,5.98,35.79,1.03,6.12,2.08,12.24,3.12,18.35.05.28.07.57.12.85.13.67-.18.93-.83.92-2.91,0-5.81-.03-8.72,0-.9,0-1.05-.55-1.16-1.21-.65-3.8-1.29-7.6-1.93-11.39-1.13-6.59-2.25-13.18-3.38-19.77-.15-.91-.31-1.81-.47-2.77-.46.18-.46.57-.57.86-3.7,10.94-7.4,21.88-11.09,32.82-.48,1.43-.48,1.4-1.93,1.44-2.24.06-4.46.05-6.7,0-1.6-.03-1.6,0-2.09-1.48-3.58-10.77-7.17-21.54-10.76-32.3-.12-.54-.36-1.03-.72-1.45-.35,2.05-.68,3.9-1,5.76-1.65,9.47-3.3,18.94-4.94,28.41,0,.6-.49,1.08-1.09,1.08-.06,0-.12,0-.18-.02-2.81,0-5.61.1-8.42,0-1.07-.04-1.21-.18-1.02-1.28.97-5.68,1.96-11.35,2.95-17.03,1.49-8.62,2.98-17.25,4.47-25.87.67-3.89,1.36-7.78,2-11.66-.01-.7.55-1.28,1.25-1.29.09,0,.19,0,.28.03,2.71.06,5.43.06,8.14,0,.84-.13,1.63.43,1.77,1.27,3.67,11.14,7.37,22.28,11.08,33.42.49,1.47,1.01,2.92,1.54,4.49h.02Z"/><path id="Trazado_25" class="cls-2" d="m640.09,99v-26.87c0-1.68.05-1.72,1.71-1.72,5.2,0,10.4-.09,15.61.05,4.02.03,8,.68,11.82,1.92,4.57,1.63,8.48,4.73,11.1,8.81,2.97,4.36,4.75,9.42,5.17,14.68.62,6.74-.15,13.24-3.47,19.22-3.34,6.02-8.22,10.15-15.09,11.62-1.78.36-3.58.58-5.39.67-6.82.42-13.64.13-20.47.22-.68,0-.92-.3-.97-.87-.02-.32-.02-.64-.02-.96v-26.78h-.01Zm11.11-.19v16.34c0,1.49.21,1.72,1.7,1.72,3.21.02,6.43-.15,9.62-.52,5.04-.6,8.36-3.42,10.27-7.93,2.17-5.23,2.35-11.07.52-16.43-1.36-4.84-5.21-8.59-10.09-9.81-3.43-.84-6.97-1.21-10.5-1.08-1.38,0-1.51.13-1.51,1.54v16.16h0Z"/><path id="Trazado_26" class="cls-1" d="m250.13,99.01v-27.16c.04-1.3.15-1.42,1.45-1.41,5.32.06,10.66-.2,15.98.17,2.78.05,5.53.61,8.11,1.65,4.81,2.24,7.43,6.17,8.31,11.29.48,2.68.39,5.43-.25,8.07-1.01,4.27-4,7.79-8.03,9.51q-2.19,1.03-1.07,3.15c3.87,7.28,7.74,14.56,11.62,21.83.1.2.2.4.3.6.28.53.08.78-.48.81-.26.02-.51,0-.77,0-3,0-6-.05-9,.02-.9.09-1.75-.44-2.07-1.28-3.76-7.16-7.54-14.31-11.34-21.44-.14-.26-.26-.51-.42-.75-.2-.31-.34-.75-.85-.61-.43.13-.39.53-.4.88-.02.48-.03.96-.03,1.44v20.28c0,1.41-.06,1.47-1.44,1.47h-8.13c-1.4,0-1.5-.1-1.5-1.54v-26.98Zm11.09-12.24h0v4.77c0,.49.05,1.05.7,1.05,2.95.02,5.93.27,8.78-.84.69-.24,1.31-.67,1.78-1.24,1.94-2.5,1.6-7.98-3.18-9.02-2.3-.36-4.62-.5-6.95-.41-.83-.02-1.17.31-1.16,1.11.02,1.52,0,3.06,0,4.58h.02Z"/><path id="Trazado_27" class="cls-2" d="m733.1,115.92c-3.45,0-6.9.02-10.34-.02-.71-.1-1.38.34-1.56,1.03-1.24,3.27-2.59,6.51-3.86,9.77-.16.57-.7.94-1.29.89-3.16,0-6.32,0-9.48,0-.9,0-1.06-.26-.73-1.12,4.02-10.39,8.03-20.77,12.05-31.16,3.04-7.87,6.08-15.73,9.1-23.6.17-.86.98-1.45,1.85-1.33,2.91.09,5.81.06,8.71.02.74-.1,1.44.37,1.63,1.09,3.84,10.04,7.7,20.08,11.58,30.11,3.14,8.13,6.27,16.27,9.4,24.41.09.24.15.49.25.73.23.58,0,.86-.58.86h-9.86c-.66,0-.93-.42-1.14-.97-1.2-3.15-2.43-6.29-3.59-9.46-.18-.83-.96-1.38-1.8-1.27-3.45.06-6.9.02-10.34.02v-.02Zm-.09-10.86h6.51c.65,0,1.09-.09.75-.93-2.22-5.62-4.41-11.25-6.62-16.87-.1-.26-.09-.73-.5-.69-.3.02-.36.42-.46.67-2.2,5.62-4.41,11.24-6.62,16.86-.33.82-.04.98.73.97,2.08-.03,4.14,0,6.22,0h-.01Z"/><path id="Trazado_28" class="cls-2" d="m602.73,99.1v-26.97c.02-1.65.1-1.73,1.72-1.73h28.25c.69-.11,1.34.37,1.45,1.06.02.11.02.23,0,.35v7.55c.11.86-.51,1.65-1.37,1.76-.14.02-.29.02-.43,0h-16.95c-1.52,0-1.57.04-1.57,1.56v7.17c0,1.3.1,1.4,1.44,1.4h17.43c1.31,0,1.36,0,1.47,1.31.18,2.76.2,5.53.06,8.3-.03.93-.46,1.14-1.33,1.13-5.78-.03-11.55-.02-17.33-.02-.85-.11-1.63.49-1.74,1.34-.02.15-.02.29,0,.44v11.58c0,1.44.12,1.56,1.6,1.56h17.33c1.29,0,1.28,0,1.4,1.26.2,2.86.2,5.72,0,8.58-.02.62-.31.86-.89.86h-29.12c-1.29,0-1.42-.13-1.42-1.42v-27.06h-.02.02Z"/><path id="Trazado_29" class="cls-1" d="m491.25,98.89v-26.78c0-1.68.02-1.69,1.72-1.69h28.14c1.39,0,1.45.06,1.46,1.45v7.74c0,1.37-.07,1.45-1.47,1.45-4.09,0-8.17,0-12.26,0-1.85,0-3.7.02-5.55-.02-.79-.02-1.11.31-1.1,1.06,0,2.67.02,5.36,0,8.03,0,.92.47,1.1,1.28,1.09,5.71-.02,11.42,0,17.13,0,.38,0,.77.03,1.15.02.39-.06.76.2.82.59.01.07.01.15,0,.22v8.99c.05.42-.25.79-.67.84-.05,0-.1,0-.15,0-.29.02-.58.02-.86.02h-17.04c-1.59,0-1.65.08-1.65,1.68v11.38c0,1.86.03,1.89,1.95,1.89h17.04c1.33,0,1.39.06,1.4,1.4,0,2.64-.02,5.29.02,7.94,0,.91-.29,1.32-1.26,1.3-2.08-.03-4.14.03-6.22.03-7.11,0-14.23-.06-21.35-.04-2.55,0-2.52.33-2.52-2.53v-26.1l-.02.03Z"/><path id="Trazado_30" class="cls-1" d="m291.67,99.01v-26.49c0-.38.03-.77.02-1.15-.02-.65.29-.94.92-.93h29.01c1.23,0,1.3.08,1.3,1.3v7.94c0,1.29-.1,1.41-1.41,1.41h-17.43c-1.38,0-1.46.08-1.46,1.47v7.17c0,1.45.08,1.53,1.49,1.53h16.66c2.6,0,2.12.03,2.14,2.19.02,2.32,0,4.65,0,6.98,0,1.5-.02,1.52-1.58,1.52h-16.47c-1.08-.16-2.1.59-2.26,1.67-.03.19-.03.38,0,.56v11c0,1.63.07,1.72,1.73,1.72h17.14c1.4,0,1.43.02,1.43,1.46,0,2.67-.02,5.36.02,8.03.02.82-.26,1.18-1.09,1.15-.45-.02-.89.04-1.34.04l-27.38-.05c-1.4,0-1.45-.06-1.45-1.45v-27.06h.02Z"/><path id="Trazado_32" class="cls-1" d="m477.49,104.26v21.61c0,1.65,0,1.65-1.64,1.65h-7.86c-1.67,0-1.68,0-1.68-1.72v-43.32c0-1.32-.09-1.4-1.42-1.4-2.46,0-4.92,0-7.37,0-1.24,0-1.36-.14-1.36-1.38v-7.93c0-1.24.09-1.33,1.29-1.33h29.1c1.18,0,1.22.09,1.28,1.23.14,2.67.02,5.35,0,8.02-.02,1.27-.06,1.36-1.35,1.38-2.55.03-5.11,0-7.66.02-1.27,0-1.34.07-1.34,1.36v21.8h0Z"/><path id="Trazado_33" class="cls-2" d="m701.97,99v27.26c0,1.29-.04,1.33-1.36,1.33h-8.33c-1.13,0-1.26-.14-1.26-1.28v-54.61c0-1.24.06-1.3,1.29-1.3,2.84,0,5.68.03,8.52-.02.89-.02,1.15.3,1.14,1.17-.02,9.15-.03,18.3-.02,27.45h0Z"/><path id="Trazado_34" class="cls-2" d="m779.11,85.69c.02-2.6,2.13-4.69,4.73-4.67,2.6.02,4.69,2.13,4.67,4.73h0c-.04,2.61-2.18,4.71-4.79,4.7-2.58-.06-4.64-2.19-4.61-4.77h0Z"/><path id="Trazado_35" class="cls-2" d="m820.7,85.72c.01,2.58-2.05,4.69-4.63,4.73-2.62.02-4.76-2.09-4.78-4.72-.02-2.62,2.09-4.76,4.72-4.78,2.61.01,4.71,2.13,4.7,4.74,0,0,0,.02,0,.03h0Z"/><path id="Trazado_36" class="cls-2" d="m806.88,77.1c-2.6.02-4.73-2.08-4.75-4.68,0,0,0-.01,0-.02.03-2.58,2.12-4.65,4.69-4.67,2.51-.12,4.64,1.81,4.76,4.31,0,.12,0,.23,0,.35.1,2.5-1.83,4.61-4.33,4.71-.13,0-.25,0-.38,0h0Z"/><path id="Trazado_37" class="cls-2" d="m806.9,120.89c2.49-.09,4.59,1.85,4.68,4.34,0,.13,0,.26,0,.39.04,2.54-1.99,4.62-4.53,4.65-.06,0-.11,0-.17,0-2.62,0-4.76-2.11-4.77-4.74,0-.02,0-.05,0-.07.07-2.58,2.2-4.62,4.78-4.57Z"/><path id="Trazado_38" class="cls-2" d="m779.11,112.32c-.04-2.59,2.02-4.73,4.61-4.77s4.73,2.02,4.77,4.61c0,.05,0,.09,0,.14,0,2.59-2.09,4.7-4.68,4.71-2.59,0-4.7-2.09-4.71-4.68Z"/><path id="Trazado_39" class="cls-2" d="m820.7,112.32c0,2.59-2.11,4.69-4.71,4.68-2.59,0-4.69-2.11-4.68-4.71-.03-2.59,2.05-4.72,4.64-4.75,2.59-.03,4.72,2.05,4.75,4.64,0,.05,0,.09,0,.14Z"/><path id="Trazado_40" class="cls-2" d="m774.63,120.89c2.5-.09,4.6,1.85,4.69,4.35,0,.11,0,.22,0,.33.03,2.57-2.04,4.68-4.61,4.71-.03,0-.06,0-.09,0-2.57-.02-4.65-2.09-4.69-4.66-.02-2.59,2.06-4.71,4.65-4.73.02,0,.03,0,.05,0Z"/><path id="Trazado_41" class="cls-2" d="m788.29,98.99c-.08-2.5,1.88-4.6,4.38-4.68.08,0,.15,0,.23,0,2.59-.04,4.72,2.03,4.76,4.62.04,2.59-2.03,4.72-4.62,4.76-.05,0-.09,0-.14,0-2.53.02-4.6-2.01-4.62-4.54,0-.05,0-.1,0-.15Z"/><path id="Trazado_42" class="cls-2" d="m820.48,98.93c-.03-2.52,1.99-4.6,4.51-4.63.06,0,.12,0,.17,0,2.59,0,4.7,2.09,4.7,4.69,0,2.59-2.09,4.7-4.69,4.7-2.59,0-4.7-2.09-4.7-4.69,0-.02,0-.05,0-.07Z"/><path id="Trazado_43" class="cls-2" d="m779.33,72.43c.07,2.51-1.91,4.6-4.42,4.67-.1,0-.2,0-.3,0-2.59.01-4.7-2.07-4.71-4.66-.01-2.59,2.07-4.7,4.66-4.71.05,0,.11,0,.16,0,2.54-.01,4.6,2.03,4.62,4.57,0,.05,0,.09,0,.14h0Z"/><path class="cls-1" d="m424.78,68.98c-16.59-.06-30.45,13.51-30.68,29.71-.22,15.22,12.02,30.83,30.3,31.05,17.8.21,31-14.66,31.03-30.55.03-16.56-13.73-30.15-30.66-30.22Zm.13,57.22c-14.55,0-26.34-11.79-26.34-26.34,0-14.55,11.79-26.34,26.34-26.34h0c14.54,0,26.33,11.79,26.34,26.34,0,14.55-11.79,26.34-26.34,26.34Z"/><path class="cls-1" d="m431.92,92.72c-4.14-4.14-10.85-4.14-14.99,0-4.14,4.14-4.14,10.85,0,14.99,4.14,4.14,10.85,4.14,14.99,0,4.14-4.14,4.14-10.85,0-14.99h0Z"/></g></svg>